<svg xmlns="http://www.w3.org/2000/svg" width="26" height="25" viewBox="0 0 26 25" fill="none">
<g clip-path="url(#clip0_15_1677)">
<path d="M13 24.5002L11.1875 22.8581C9.08333 20.9423 7.34375 19.2897 5.96875 17.9002C4.59375 16.5108 3.5 15.2634 2.6875 14.1581C1.875 13.0529 1.30729 12.0371 0.984375 11.1108C0.661458 10.1844 0.5 9.23708 0.5 8.26866C0.5 6.28971 1.15625 4.63708 2.46875 3.31076C3.78125 1.98445 5.41667 1.32129 7.375 1.32129C8.45833 1.32129 9.48958 1.55287 10.4688 2.01603C11.4479 2.47918 12.2917 3.13182 13 3.97392C13.7083 3.13182 14.5521 2.47918 15.5312 2.01603C16.5104 1.55287 17.5417 1.32129 18.625 1.32129C20.5833 1.32129 22.2188 1.98445 23.5312 3.31076C24.8438 4.63708 25.5 6.28971 25.5 8.26866C25.5 9.23708 25.3385 10.1844 25.0156 11.1108C24.6927 12.0371 24.125 13.0529 23.3125 14.1581C22.5 15.2634 21.4062 16.5108 20.0312 17.9002C18.6562 19.2897 16.9167 20.9423 14.8125 22.8581L13 24.5002ZM13 21.0897C15 19.2792 16.6458 17.7266 17.9375 16.4318C19.2292 15.1371 20.25 14.0108 21 13.0529C21.75 12.095 22.2708 11.2423 22.5625 10.495C22.8542 9.74761 23 9.0055 23 8.26866C23 7.0055 22.5833 5.95287 21.75 5.11076C20.9167 4.26866 19.875 3.84761 18.625 3.84761C17.6458 3.84761 16.7396 4.12655 15.9062 4.68445C15.0729 5.24234 14.5 5.95287 14.1875 6.81603H11.8125C11.5 5.95287 10.9271 5.24234 10.0938 4.68445C9.26042 4.12655 8.35417 3.84761 7.375 3.84761C6.125 3.84761 5.08333 4.26866 4.25 5.11076C3.41667 5.95287 3 7.0055 3 8.26866C3 9.0055 3.14583 9.74761 3.4375 10.495C3.72917 11.2423 4.25 12.095 5 13.0529C5.75 14.0108 6.77083 15.1371 8.0625 16.4318C9.35417 17.7266 11 19.2792 13 21.0897Z" fill="#3F484A"/>
</g>
<defs>
<clipPath id="clip0_15_1677">
<rect width="25" height="24" fill="white" transform="translate(0.5 0.5)"/>
</clipPath>
</defs>
</svg>