<svg xmlns="http://www.w3.org/2000/svg" width="25" height="25" viewBox="0 0 25 25" fill="none">
<g clip-path="url(#clip0_15_1445)">
<path d="M5.12 18.62C6.14 17.84 7.28 17.225 8.54 16.775C9.8 16.325 11.12 16.1 12.5 16.1C13.88 16.1 15.2 16.325 16.46 16.775C17.72 17.225 18.86 17.84 19.88 18.62C20.58 17.8 21.125 16.87 21.515 15.83C21.905 14.79 22.1 13.68 22.1 12.5C22.1 9.84 21.165 7.575 19.295 5.705C17.425 3.835 15.16 2.9 12.5 2.9C9.84 2.9 7.575 3.835 5.705 5.705C3.835 7.575 2.9 9.84 2.9 12.5C2.9 13.68 3.095 14.79 3.485 15.83C3.875 16.87 4.42 17.8 5.12 18.62ZM12.5 13.7C11.32 13.7 10.325 13.295 9.515 12.485C8.705 11.675 8.3 10.68 8.3 9.5C8.3 8.32 8.705 7.325 9.515 6.515C10.325 5.705 11.32 5.3 12.5 5.3C13.68 5.3 14.675 5.705 15.485 6.515C16.295 7.325 16.7 8.32 16.7 9.5C16.7 10.68 16.295 11.675 15.485 12.485C14.675 13.295 13.68 13.7 12.5 13.7ZM12.5 24.5C10.84 24.5 9.28 24.185 7.82 23.555C6.36 22.925 5.09 22.07 4.01 20.99C2.93 19.91 2.075 18.64 1.445 17.18C0.815 15.72 0.5 14.16 0.5 12.5C0.5 10.84 0.815 9.28 1.445 7.82C2.075 6.36 2.93 5.09 4.01 4.01C5.09 2.93 6.36 2.075 7.82 1.445C9.28 0.815 10.84 0.5 12.5 0.5C14.16 0.5 15.72 0.815 17.18 1.445C18.64 2.075 19.91 2.93 20.99 4.01C22.07 5.09 22.925 6.36 23.555 7.82C24.185 9.28 24.5 10.84 24.5 12.5C24.5 14.16 24.185 15.72 23.555 17.18C22.925 18.64 22.07 19.91 20.99 20.99C19.91 22.07 18.64 22.925 17.18 23.555C15.72 24.185 14.16 24.5 12.5 24.5ZM12.5 22.1C13.56 22.1 14.56 21.945 15.5 21.635C16.44 21.325 17.3 20.88 18.08 20.3C17.3 19.72 16.44 19.275 15.5 18.965C14.56 18.655 13.56 18.5 12.5 18.5C11.44 18.5 10.44 18.655 9.5 18.965C8.56 19.275 7.7 19.72 6.92 20.3C7.7 20.88 8.56 21.325 9.5 21.635C10.44 21.945 11.44 22.1 12.5 22.1ZM12.5 11.3C13.02 11.3 13.45 11.13 13.79 10.79C14.13 10.45 14.3 10.02 14.3 9.5C14.3 8.98 14.13 8.55 13.79 8.21C13.45 7.87 13.02 7.7 12.5 7.7C11.98 7.7 11.55 7.87 11.21 8.21C10.87 8.55 10.7 8.98 10.7 9.5C10.7 10.02 10.87 10.45 11.21 10.79C11.55 11.13 11.98 11.3 12.5 11.3Z" fill="#3F484A"/>
</g>
<defs>
<clipPath id="clip0_15_1445">
<rect width="24" height="24" fill="white" transform="translate(0.5 0.5)"/>
</clipPath>
</defs>
</svg>