<svg xmlns="http://www.w3.org/2000/svg" width="10" height="20" viewBox="0 0 10 20" fill="none">
<g clip-path="url(#clip0_23_936)">
<path d="M4.02519 19.5V17.2306C3.14186 17.0194 2.37936 16.6148 1.7377 16.0167C1.09603 15.4185 0.625195 14.5741 0.325195 13.4833L2.1752 12.6917C2.42519 13.5361 2.79603 14.1782 3.28769 14.6181C3.77936 15.0579 4.42519 15.2778 5.22519 15.2778C5.90853 15.2778 6.48769 15.115 6.96269 14.7896C7.43769 14.4641 7.67519 13.9583 7.67519 13.2722C7.67519 12.6565 7.49186 12.1683 7.12519 11.8076C6.75853 11.447 5.90853 11.038 4.57519 10.5806C3.14186 10.1056 2.15853 9.53819 1.6252 8.87847C1.09186 8.21875 0.825195 7.41389 0.825195 6.46389C0.825195 5.32037 1.1752 4.43194 1.8752 3.79861C2.5752 3.16528 3.29186 2.80463 4.02519 2.71667V0.5H6.02519V2.71667C6.85853 2.85741 7.54603 3.17847 8.08769 3.67986C8.62936 4.18125 9.02519 4.79259 9.27519 5.51389L7.42519 6.35833C7.22519 5.79537 6.94186 5.37315 6.57519 5.09167C6.20853 4.81019 5.70853 4.66944 5.07519 4.66944C4.34186 4.66944 3.78353 4.84097 3.40019 5.18403C3.01686 5.52708 2.8252 5.9537 2.8252 6.46389C2.8252 7.04444 3.07519 7.50185 3.57519 7.83611C4.07519 8.17037 4.94186 8.52222 6.17519 8.89167C7.32519 9.24352 8.19603 9.80208 8.78769 10.5674C9.37936 11.3326 9.67519 12.2167 9.67519 13.2194C9.67519 14.4685 9.32519 15.4185 8.62519 16.0694C7.92519 16.7204 7.05853 17.125 6.02519 17.2833V19.5H4.02519Z" fill="#3F484A"/>
</g>
<defs>
<clipPath id="clip0_23_936">
<rect width="10" height="19" fill="white" transform="translate(0 0.5)"/>
</clipPath>
</defs>
</svg>