<svg xmlns="http://www.w3.org/2000/svg" width="25" height="25" viewBox="0 0 25 25" fill="none">
<path d="M22.6333 24.5L14.2333 16.1C13.5667 16.6333 12.8 17.0556 11.9333 17.3667C11.0667 17.6778 10.1444 17.8333 9.16667 17.8333C6.74444 17.8333 4.69444 16.9944 3.01667 15.3167C1.33889 13.6389 0.5 11.5889 0.5 9.16667C0.5 6.74444 1.33889 4.69444 3.01667 3.01667C4.69444 1.33889 6.74444 0.5 9.16667 0.5C11.5889 0.5 13.6389 1.33889 15.3167 3.01667C16.9944 4.69444 17.8333 6.74444 17.8333 9.16667C17.8333 10.1444 17.6778 11.0667 17.3667 11.9333C17.0556 12.8 16.6333 13.5667 16.1 14.2333L24.5 22.6333L22.6333 24.5ZM9.16667 15.1667C10.8333 15.1667 12.25 14.5833 13.4167 13.4167C14.5833 12.25 15.1667 10.8333 15.1667 9.16667C15.1667 7.5 14.5833 6.08333 13.4167 4.91667C12.25 3.75 10.8333 3.16667 9.16667 3.16667C7.5 3.16667 6.08333 3.75 4.91667 4.91667C3.75 6.08333 3.16667 7.5 3.16667 9.16667C3.16667 10.8333 3.75 12.25 4.91667 13.4167C6.08333 14.5833 7.5 15.1667 9.16667 15.1667Z" fill="#3F484A"/>
</svg>