<svg xmlns="http://www.w3.org/2000/svg" width="24" height="20" viewBox="0 0 24 20" fill="none">
<g clip-path="url(#clip0_23_942)">
<path d="M8.64 15L12 12.5062L15.3 15L14.04 10.9625L17.4 8.35H13.32L12 4.3125L10.68 8.35H6.6L9.9 10.9625L8.64 15ZM2.4 19.75C1.74 19.75 1.175 19.5174 0.705 19.0523C0.235 18.5872 0 18.0281 0 17.375V13.3672C0 13.1495 0.07 12.9615 0.21 12.8031C0.35 12.6448 0.53 12.5458 0.75 12.5062C1.23 12.3479 1.625 12.0609 1.935 11.6453C2.245 11.2297 2.4 10.7646 2.4 10.25C2.4 9.73542 2.245 9.27031 1.935 8.85469C1.625 8.43906 1.23 8.15208 0.75 7.99375C0.53 7.95417 0.35 7.85521 0.21 7.69688C0.07 7.53854 0 7.35052 0 7.13281V3.125C0 2.47187 0.235 1.91276 0.705 1.44766C1.175 0.982552 1.74 0.75 2.4 0.75H21.6C22.26 0.75 22.825 0.982552 23.295 1.44766C23.765 1.91276 24 2.47187 24 3.125V7.13281C24 7.35052 23.93 7.53854 23.79 7.69688C23.65 7.85521 23.47 7.95417 23.25 7.99375C22.77 8.15208 22.375 8.43906 22.065 8.85469C21.755 9.27031 21.6 9.73542 21.6 10.25C21.6 10.7646 21.755 11.2297 22.065 11.6453C22.375 12.0609 22.77 12.3479 23.25 12.5062C23.47 12.5458 23.65 12.6448 23.79 12.8031C23.93 12.9615 24 13.1495 24 13.3672V17.375C24 18.0281 23.765 18.5872 23.295 19.0523C22.825 19.5174 22.26 19.75 21.6 19.75H2.4ZM2.4 17.375H21.6V14.3469C20.86 13.9115 20.275 13.3326 19.845 12.6102C19.415 11.8878 19.2 11.101 19.2 10.25C19.2 9.39896 19.415 8.61224 19.845 7.88984C20.275 7.16745 20.86 6.58854 21.6 6.15312V3.125H2.4V6.15312C3.14 6.58854 3.725 7.16745 4.155 7.88984C4.585 8.61224 4.8 9.39896 4.8 10.25C4.8 11.101 4.585 11.8878 4.155 12.6102C3.725 13.3326 3.14 13.9115 2.4 14.3469V17.375Z" fill="#3F484A"/>
</g>
<defs>
<clipPath id="clip0_23_942">
<rect width="24" height="19" fill="white" transform="translate(0 0.75)"/>
</clipPath>
</defs>
</svg>