<svg xmlns="http://www.w3.org/2000/svg" width="21" height="20" viewBox="0 0 21 20" fill="none">
<g clip-path="url(#clip0_24_947)">
<path d="M0 19.75V17.6389C0.665 17.6389 1.26 17.5113 1.785 17.2563C2.31 17.0012 2.87875 16.6449 3.49125 16.1875C4.01625 16.6273 4.58938 16.9748 5.21062 17.2299C5.83187 17.485 6.43125 17.6125 7.00875 17.6125C7.58625 17.6125 8.19 17.4894 8.82 17.2431C9.45 16.9968 10.0187 16.6449 10.5262 16.1875C11.0862 16.6801 11.6637 17.0407 12.2587 17.2694C12.8537 17.4981 13.4487 17.6125 14.0437 17.6125C14.6212 17.6125 15.1856 17.4981 15.7369 17.2694C16.2881 17.0407 16.8962 16.6801 17.5612 16.1875C18.2437 16.7153 18.8475 17.0891 19.3725 17.309C19.8975 17.5289 20.44 17.6389 21 17.6389V19.75C20.3875 19.75 19.7969 19.6664 19.2281 19.4993C18.6594 19.3322 18.1038 19.0903 17.5612 18.7736C17.0012 19.1255 16.4194 19.3762 15.8156 19.5257C15.2119 19.6752 14.6212 19.75 14.0437 19.75C13.4662 19.75 12.8756 19.6752 12.2719 19.5257C11.6681 19.3762 11.0862 19.1255 10.5262 18.7736C10.0187 19.1079 9.45875 19.3542 8.84625 19.5125C8.23375 19.6708 7.62125 19.75 7.00875 19.75C6.41375 19.75 5.81875 19.6708 5.22375 19.5125C4.62875 19.3542 4.05125 19.1079 3.49125 18.7736C2.94875 19.0903 2.38437 19.3322 1.79812 19.4993C1.21187 19.6664 0.6125 19.75 0 19.75ZM0 15V12.8889C0 11.1824 0.328125 9.59028 0.984375 8.1125C1.64062 6.63472 2.5375 5.35046 3.675 4.25972C4.8125 3.16898 6.14687 2.31134 7.67812 1.68681C9.20937 1.06227 10.85 0.75 12.6 0.75C13.1775 0.75 13.7506 0.780787 14.3194 0.842361C14.8881 0.903935 15.4 0.9875 15.855 1.09306C15.4875 1.65602 15.2031 2.24977 15.0019 2.87431C14.8006 3.49884 14.7 4.0838 14.7 4.62917C14.7 5.59676 15.0412 6.42361 15.7237 7.10972C16.4062 7.79583 17.2288 8.13889 18.1912 8.13889H21V10.25H18.1912C16.6337 10.25 15.3125 9.70463 14.2275 8.61389C13.1425 7.52315 12.6 6.19491 12.6 4.62917C12.6 4.38287 12.6175 4.12338 12.6525 3.85069C12.6875 3.57801 12.74 3.30972 12.81 3.04583C11.515 3.3625 10.4562 4.03542 9.63375 5.06458C8.81125 6.09375 8.4 7.29444 8.4 8.66667C8.4 9.3 8.50062 9.90255 8.70187 10.4743C8.90312 11.0461 9.1875 11.587 9.555 12.0972C9.695 12.0093 9.84375 11.9081 10.0012 11.7937C10.1587 11.6794 10.325 11.5606 10.5 11.4375C11.0075 11.8949 11.5938 12.2468 12.2587 12.4931C12.9237 12.7394 13.5187 12.8625 14.0437 12.8625C14.5687 12.8625 15.155 12.735 15.8025 12.4799C16.45 12.2248 17.0362 11.8773 17.5612 11.4375C18.1213 11.8597 18.6769 12.2072 19.2281 12.4799C19.7794 12.7525 20.37 12.8889 21 12.8889V15C20.3875 15 19.7969 14.9164 19.2281 14.7493C18.6594 14.5822 18.1038 14.3403 17.5612 14.0236C17.0012 14.3755 16.4325 14.6262 15.855 14.7757C15.2775 14.9252 14.6737 15 14.0437 15C13.4137 15 12.7837 14.912 12.1537 14.7361C11.5237 14.5602 10.9812 14.3227 10.5262 14.0236C9.98375 14.3579 9.415 14.5998 8.82 14.7493C8.225 14.8988 7.62125 14.9824 7.00875 15C6.39625 15.0176 5.7925 14.9384 5.1975 14.7625C4.6025 14.5866 4.03375 14.3403 3.49125 14.0236C2.94875 14.3403 2.38437 14.5822 1.79812 14.7493C1.21187 14.9164 0.6125 15 0 15ZM6.95625 12.8625H7.21875C7.30625 12.8625 7.39375 12.8537 7.48125 12.8361C7.09625 12.2204 6.80312 11.5606 6.60187 10.8569C6.40062 10.1532 6.3 9.42315 6.3 8.66667C6.3 7.24167 6.62375 5.95301 7.27125 4.80069C7.91875 3.64838 8.82 2.70278 9.975 1.96389V3.125C8.89 3.40648 7.88812 3.8331 6.96937 4.40486C6.05062 4.97662 5.24563 5.66713 4.55437 6.47639C3.86312 7.28565 3.3075 8.18727 2.8875 9.18125C2.4675 10.1752 2.21375 11.2352 2.12625 12.3611C2.38875 12.2028 2.61625 12.062 2.80875 11.9389C3.00125 11.8157 3.22875 11.6486 3.49125 11.4375C4.13875 11.9125 4.725 12.2688 5.25 12.5063C5.775 12.7438 6.34375 12.8625 6.95625 12.8625Z" fill="#3F484A"/>
</g>
<defs>
<clipPath id="clip0_24_947">
<rect width="21" height="19" fill="white" transform="translate(0 0.75)"/>
</clipPath>
</defs>
</svg>